<svg
   version="1.1"
   id="svg1113"
   xml:space="preserve"
   width="682.66669"
   height="682.66669"
   viewBox="0 0 682.66669 682.66669"
   xmlns="http://www.w3.org/2000/svg"
   xmlns:svg="http://www.w3.org/2000/svg"><defs
     id="defs1117"><clipPath
       clipPathUnits="userSpaceOnUse"
       id="clipPath1127"><path
         d="M 0,512 H 512 V 0 H 0 Z"
         id="path1125" /></clipPath></defs><g
     id="g1119"
     transform="matrix(1.3333333,0,0,-1.3333333,0,682.66667)"><g
       id="g1121"><g
         id="g1123"
         clip-path="url(#clipPath1127)"><g
           id="g1129"
           transform="translate(297.9585,201.289)"><path
             d="m 0,0 h -200.758 c -7.719,0 -13.011,-7.867 -10.022,-14.984 18.109,-43.111 60.709,-73.393 110.401,-73.393 49.692,0 92.292,30.282 110.4,73.393 C 13.012,-7.867 7.719,0 0,0 Z"
             style="fill:none;stroke:#020202;stroke-width:15;stroke-linecap:round;stroke-linejoin:round;stroke-miterlimit:10;stroke-dasharray:none;stroke-opacity:1"
             id="path1131" /></g><g
           id="g1133"
           transform="translate(97.418,275.6977)"><path
             d="M 0,0 C 0,19.035 15.431,34.466 34.466,34.466 53.501,34.466 68.932,19.035 68.932,0"
             style="fill:none;stroke:#020202;stroke-width:15;stroke-linecap:round;stroke-linejoin:round;stroke-miterlimit:10;stroke-dasharray:none;stroke-opacity:1"
             id="path1135" /></g><g
           id="g1137"
           transform="translate(228.8091,275.6977)"><path
             d="M 0,0 C 0,19.035 15.431,34.466 34.466,34.466 53.501,34.466 68.933,19.035 68.933,0"
             style="fill:none;stroke:#020202;stroke-width:15;stroke-linecap:round;stroke-linejoin:round;stroke-miterlimit:10;stroke-dasharray:none;stroke-opacity:1"
             id="path1139" /></g><g
           id="g1141"
           transform="translate(303.5044,83.9633)"><path
             d="m 0,0 c 46.375,33.1 76.612,87.354 76.612,148.673 0,100.812 -81.723,182.536 -182.535,182.537 -100.984,0 -182.365,-81.233 -182.538,-182.217 -0.105,-60.777 29.496,-114.644 75.091,-147.897 5.255,-3.832 6.896,-10.974 3.628,-16.597 -9.253,-15.918 -21.839,-32.535 -38.958,-48.117 -5.468,-4.978 -0.986,-14.025 6.292,-12.717 25.694,4.616 66.104,15.482 101.696,40.74 3.653,2.592 8.17,3.616 12.617,3.074 7.267,-0.883 14.664,-1.343 22.17,-1.343 26.97,0 52.571,5.854 75.611,16.353"
             style="fill:none;stroke:#020202;stroke-width:15;stroke-linecap:round;stroke-linejoin:round;stroke-miterlimit:10;stroke-dasharray:none;stroke-opacity:1"
             id="path1143" /></g><g
           id="g1145"
           transform="translate(352.2085,135.6113)"><path
             d="m 0,0 c 34.844,-23.773 73.721,-34.169 98.696,-38.657 7.278,-1.307 11.76,7.74 6.291,12.718 -17.119,15.583 -29.705,32.198 -38.957,48.117 -3.268,5.623 -1.627,12.764 3.628,16.597 45.595,33.252 75.196,87.12 75.091,147.897 -0.174,100.984 -81.554,182.218 -182.538,182.217 -22.684,0 -44.389,-4.162 -64.425,-11.725"
             style="fill:none;stroke:#020202;stroke-width:15;stroke-linecap:round;stroke-linejoin:round;stroke-miterlimit:10;stroke-dasharray:none;stroke-opacity:1"
             id="path1147" /></g><g
           id="g1149"
           transform="translate(218.4746,477.247)"><path
             d="M 0,0 C -26.643,-16.501 -48.737,-39.648 -63.931,-67.151"
             style="fill:none;stroke:#020202;stroke-width:15;stroke-linecap:round;stroke-linejoin:round;stroke-miterlimit:10;stroke-dasharray:none;stroke-opacity:1"
             id="path1151" /></g></g></g></g></svg>
