<?xml version="1.0"?>
<svg xmlns="http://www.w3.org/2000/svg" viewBox="0 0 64 64" width="50" height="50px"><g id="money_&#xB7;_shopping_&#xB7;_shop_&#xB7;_ecommerce_&#xB7;_hand" data-name="money &#xB7; shopping &#xB7; shop &#xB7; ecommerce &#xB7; hand"><path d="M47,17A15,15,0,1,0,32,32,15.017,15.017,0,0,0,47,17ZM32,30A13,13,0,1,1,45,17,13.015,13.015,0,0,1,32,30Z"/><path d="M32,6A11,11,0,1,0,43,17,11.013,11.013,0,0,0,32,6Zm0,20a9,9,0,1,1,9-9A9.011,9.011,0,0,1,32,26Z"/><path d="M32,14c1.221,0,2,.592,2,1a1,1,0,0,0,2,0c0-1.421-1.259-2.571-3-2.9V11a1,1,0,0,0-2,0v1.1c-1.741.327-3,1.477-3,2.9,0,1.682,1.757,3,4,3,1.221,0,2,.592,2,1s-.779,1-2,1-2-.592-2-1a1,1,0,0,0-2,0c0,1.421,1.259,2.571,3,2.9V23a1,1,0,0,0,2,0V21.9c1.741-.327,3-1.477,3-2.9,0-1.682-1.757-3-4-3-1.221,0-2-.592-2-1S30.779,14,32,14Z"/><path d="M59.73,18.36a4.578,4.578,0,0,0,.03-.53,4.02,4.02,0,0,0-3.18-3.91,4.079,4.079,0,0,0-4.7,2.97l-4.4,12.66a1.632,1.632,0,0,0-.19.09l-8.84,5.18A9.017,9.017,0,0,0,34,42.58V54a1,1,0,0,0-1,1v6a1,1,0,0,0,1,1H48a1,1,0,0,0,1-1V55a1,1,0,0,0-1-1V49.8a3.039,3.039,0,0,1,1-2.24l6.76-6.01a4.931,4.931,0,0,0,1.52-2.45l4.34-16.23a3.955,3.955,0,0,0,.14-1.04A4.019,4.019,0,0,0,59.73,18.36Zm-5.94-.88a2.113,2.113,0,0,1,2.38-1.6,2,2,0,0,1,1.59,1.95v.01a4.117,4.117,0,0,0-3.89,3.07l-2.79,8.61a3.954,3.954,0,0,0-1.34-.38ZM47,60H35V56H47ZM59.69,22.35,55.34,38.59a2.981,2.981,0,0,1-.9,1.46l-6.77,6.01A5.056,5.056,0,0,0,46,49.8V54H36V42.58a7.052,7.052,0,0,1,3.46-6.04l8.83-5.17a2,2,0,0,1,2.74.73,2.06,2.06,0,0,1,.2,1.52,2,2,0,0,1-.94,1.21l-5.73,3.31a1,1,0,0,0,1,1.73l5.73-3.31a3.948,3.948,0,0,0,1.87-2.43,4.007,4.007,0,0,0-.4-3.03l-.06-.09,3.09-9.53a2.113,2.113,0,0,1,2.38-1.6,2,2,0,0,1,1.59,1.95A1.722,1.722,0,0,1,59.69,22.35Z"/><path d="M30,54V42.58a9.017,9.017,0,0,0-4.45-7.76l-8.84-5.19c-.06-.03-.13-.05-.19-.08L12.15,16.96a4.112,4.112,0,0,0-4.74-3.04,4.021,4.021,0,0,0-3.17,3.91,4.578,4.578,0,0,0,.03.53,4.019,4.019,0,0,0-2.03,3.47,4.421,4.421,0,0,0,.13,1.04L6.72,39.09a4.916,4.916,0,0,0,1.52,2.46l6.75,6.01A3.012,3.012,0,0,1,16,49.8V54a1,1,0,0,0-1,1v6a1,1,0,0,0,1,1H30a1,1,0,0,0,1-1V55A1,1,0,0,0,30,54ZM6.24,17.83a2,2,0,0,1,1.58-1.95,2.157,2.157,0,0,1,2.42,1.67l4.02,11.59a3.816,3.816,0,0,0-.59.09,4.013,4.013,0,0,0-.75.29l-2.77-8.56a4.149,4.149,0,0,0-3.91-3.11ZM16.32,46.06,9.56,40.05a2.965,2.965,0,0,1-.9-1.47L4.31,22.35a1.722,1.722,0,0,1-.07-.52,2,2,0,0,1,1.58-1.95,2.152,2.152,0,0,1,2.41,1.65l3.07,9.48a.47.47,0,0,1-.06.09,4,4,0,0,0,1.47,5.46l5.73,3.31a1,1,0,0,0,1-1.73l-5.73-3.31a2,2,0,0,1-.74-2.73,2.018,2.018,0,0,1,2.73-.74l8.84,5.18A7.052,7.052,0,0,1,28,42.58V54H18V49.8A5.03,5.03,0,0,0,16.32,46.06ZM29,60H17V56H29Z"/></g></svg>
