<svg height="40" viewBox="0 -51 512 512" fill="#056251" width="40" xmlns="http://www.w3.org/2000/svg"><path d="m217.601562 0h-204.800781c-7.070312 0-12.800781 5.730469-12.800781 12.800781v204.800781c0 7.066407 5.730469 12.796876 12.800781 12.796876h166.148438c.25 76.800781-56.410157 128-114.949219 128-7.070312 0-12.800781 5.730468-12.800781 12.800781v25.601562c0 7.070313 5.730469 12.800781 12.800781 12.800781 76.761719 0 166.398438-51.203124 166.398438-179.203124v-217.597657c0-7.070312-5.730469-12.800781-12.796876-12.800781zm0 0"/><path d="m499.199219 0h-204.800781c-7.066407 0-12.796876 5.730469-12.796876 12.800781v204.800781c0 7.066407 5.730469 12.796876 12.796876 12.796876h166.152343c.25 76.800781-56.414062 128-114.949219 128-7.070312 0-12.800781 5.730468-12.800781 12.800781v25.601562c0 7.070313 5.730469 12.800781 12.800781 12.800781 76.761719 0 166.398438-51.203124 166.398438-179.203124v-217.597657c0-7.070312-5.730469-12.800781-12.800781-12.800781zm0 0"/></svg>