<svg id="Layer_1" height="50" viewBox="0 0 64 64" width="50" xmlns="http://www.w3.org/2000/svg"><path d="m26.783 27.977c.535.116 1.072-.219 1.192-.759.019-.082 1.902-8.218 7.024-8.218s7.006 8.136 7.024 8.218c.104.466.583.942 1.192.759.399-.089 9.783-2.263 9.783-9.977 0-2.051-.429-3.302-.8-4 .371-.698.8-1.949.8-4 .002-7.714-9.382-9.888-9.781-9.977-.538-.116-1.072.22-1.192.759-.019.082-1.902 8.218-7.024 8.218s-7.007-8.136-7.025-8.218c-.12-.539-.654-.873-1.192-.759-.399.089-9.783 2.263-9.783 9.977 0 2.051.429 3.302.8 4-.371.698-.8 1.949-.8 4 0 7.714 9.384 9.888 9.783 9.977zm24.217-17.977c0 2.421-.71 3.293-.707 3.293-.371.371-.367.992-.024 1.389.008.009.731.874.731 3.318 0 3.997-3.484 6.189-5.916 7.233 1.369-3.331.405-5.672-.486-6.935 1.063-.702 2.401-2.035 2.401-4.298 0-2.177-1.238-3.493-2.279-4.215.309-.4.607-.923.81-1.592.469-1.55.275-3.387-.576-5.481 2.435 1.021 6.046 3.218 6.046 7.287zm-16 1c4.602 0 7.062-4.388 8.188-7.29.575 1.51.736 2.82.445 3.847-.317 1.122-1.063 1.539-1.08 1.549-.359.18-.574.56-.548.961s.293.749.674.881c.095.032 2.321.829 2.321 3.053s-2.227 3.021-2.316 3.052c-.35.116-.603.419-.665.781-.062.363.084.734.374.961.112.088 2.349 1.914.851 5.638-1.1-2.899-3.566-7.432-8.243-7.432-4.602 0-7.062 4.387-8.188 7.29-.575-1.51-.736-2.82-.445-3.847.317-1.122 1.063-1.539 1.08-1.549.359-.18.574-.56.548-.961s-.293-.749-.674-.881c-.095-.032-2.321-.829-2.321-3.053s2.227-3.021 2.316-3.052c.35-.116.603-.419.665-.781.062-.363-.084-.734-.374-.961-.112-.088-2.349-1.914-.851-5.638 1.1 2.899 3.566 7.432 8.243 7.432zm-15.269 2.318c-.008-.009-.731-.874-.731-3.318 0-3.997 3.484-6.189 5.916-7.233-1.369 3.331-.405 5.672.486 6.935-1.063.702-2.401 2.035-2.401 4.298 0 2.177 1.238 3.493 2.279 4.215-.309.4-.607.923-.81 1.592-.469 1.55-.275 3.387.576 5.481-2.435-1.021-6.046-3.218-6.046-7.287 0-2.421.71-3.293.707-3.293.371-.371.367-.992.024-1.389z"/><path d="m33 15h4c.553 0 1-.447 1-1s-.447-1-1-1h-4c-.553 0-1 .447-1 1s.447 1 1 1z"/><path d="m11.5 34.65c1.93 0 3.5-1.57 3.5-3.5s-1.57-3.5-3.5-3.5-3.5 1.57-3.5 3.5 1.57 3.5 3.5 3.5zm0-5c.827 0 1.5.673 1.5 1.5s-.673 1.5-1.5 1.5-1.5-.673-1.5-1.5.673-1.5 1.5-1.5z"/><path d="m37.134 55.969 2.761-5.521c.153-.306.139-.669-.037-.963-.177-.293-.49-.476-.833-.484-.242 0-5.703-.089-9.324 3.818-.889-.349-1.731-.753-2.549-1.181l2.449-1.838c.441-.331.53-.958.199-1.4-.331-.441-.956-.529-1.4-.199l-3.116 2.339c-.723-.474-1.409-.986-2.065-1.53l4.229-2.115c.494-.247.694-.848.447-1.342s-.848-.693-1.342-.447l-4.928 2.464c-.626-.646-1.205-1.318-1.728-2.013l6.345-1.587c.536-.134.862-.677.728-1.212-.134-.536-.679-.863-1.212-.728l-7.034 1.759c-.415-.682-.79-1.39-1.13-2.121l7.623-1.692c.539-.12.879-.654.76-1.193-.12-.539-.654-.874-1.193-.76l-7.964 1.768c-.129-.361-.271-.722-.379-1.083 6.303-2.997 7.327-6.807 7.369-6.974.098-.388-.045-.795-.361-1.038l-11.329-8.68c-1.195-.918-2.73-1.231-4.21-.867-1.663.413-3.014 1.69-3.524 3.335l-4.341 13.99c-.111.359-.012.751.258 1.013.141.138 3.372 3.187 10.036 1.707.145.438.322.954.534 1.52l-6.58 6.58c-.391.391-.391 1.023 0 1.414.615.505 1.219.195 1.414 0l5.997-5.997c.245.534.523 1.093.838 1.67l-5.373 8.065c-.307.46-.203 1.116.277 1.387.772.434 1.194.012 1.387-.277l4.851-7.281c.304.463.622.908.948 1.339l-3.545 7.98c-.224.505.024 1.054.508 1.32.641.352 1.154-.136 1.32-.508l3.143-7.076c.48.528.982 1.034 1.505 1.519l-1.539 6.934c-.119.539.222 1.066.76 1.193.748.177 1.09-.294 1.193-.76l1.31-5.904c.551.422 1.121.825 1.713 1.204v6.483c0 .553.447 1 1 1s1-.447 1-1v-5.318c.436.228.888.438 1.341.645l1.697 5.948c.126.439.526.726.961.726.914 0 1.114-.743.963-1.274l-1.261-4.419c.539.194 1.088.38 1.657.549 3.388 5.085 11.3 5.145 11.642 5.145.356 0 .686-.189.865-.498s.18-.688.003-.998l-3.734-6.535zm-34.972-17.569 4.133-13.323c.305-.98 1.107-1.741 2.096-1.986.889-.221 1.801-.031 2.511.513l10.719 8.212c-.563 1.078-2.249 3.457-6.768 5.418h-.002l-4.175 1.817c-4.744 1.274-7.487.013-8.514-.65zm27.695 19.085c-.131-.219-.341-.379-.586-.447-1.317-.372-2.556-.819-3.679-1.329l-.014-.006c-2.347-1.022-4.452-2.347-6.258-3.934-1-.882-1.928-1.858-2.759-2.902-.717-.9-1.366-1.86-1.986-2.937-1.23-2.138-1.915-4.081-2.342-5.377l2.373-1.033c.188.606.394 1.211.634 1.811.585 1.46 1.74 4.451 4.528 7.263s6.041 4.989 9.889 6.344c.403.148.854.021 1.121-.312 1.913-2.379 4.745-3.198 6.529-3.48l-2.203 4.406c-.149.299-.14.653.026.943l3.062 5.358c-2.384-.313-6.491-1.294-8.336-4.369z"/><path d="m63.96 27.721c-.078-.268-.264-.49-.513-.615l-4-2c-.469-.232-1.036-.066-1.305.38l-2.439 4.065c-1.031-.604-2.796-1.243-5.02-.499-1.203.4-1.951.822-2.674 1.23-1.122.634-2.182 1.231-5.174 1.731-5.595.932-11.333-1.88-11.39-1.908-.429-.214-.942-.095-1.235.279-.088.114-2.152 2.812-1.164 5.916.704 2.23 2.985 5.029 9.859 5.694.832.08 1.743.073 2.723-.019-1.646 1.749-1.772 4.444-.257 6.342.929 1.151 2.306 1.812 3.778 1.812.676 0 1.336-.14 1.967-.417l2.127-.95c-.157 1.128-.244 2.215-.244 3.237 0 7.019 1.182 9.781 4.684 10.948 1.106.369 2.1.494 2.938.494 1.701 0 2.762-.516 2.826-.548.255-.128.442-.36.517-.635.074-.275.026-.571-.129-.811-.019-.028-1.835-2.878-1.835-8.449 0-3.041 1.397-5.529 2.749-7.935 1.158-2.06 2.251-4.006 2.251-6.065 0-3.098-1.108-5.13-1.784-6.082l2.642-4.403c.144-.239.181-.526.103-.794zm-17.652 20.164c-1.177.515-2.582.167-3.375-.818-.907-1.137-.819-2.766.204-3.789l1.893-1.893c2.66-.636 5.204-1.605 6.979-2.365-.744 1.818-1.698 4.468-2.335 7.363l-3.365 1.503zm12.835-15.399c-.233.389-.17.891.145 1.216.07.072 1.713 1.808 1.713 5.299 0 1.536-.924 3.181-1.994 5.086-1.409 2.507-3.006 5.35-3.006 8.914 0 4.13.913 6.924 1.556 8.378-.742.113-1.86.134-3.239-.326-1.941-.647-3.316-1.676-3.316-9.052 0-1.442.175-3.027.52-4.71 1.059-5.17 3.352-9.797 3.375-9.843.193-.387.116-.854-.191-1.158-.41-.436-1.015-.253-1.159-.18-.045.023-4.572 2.326-9.247 3.396h-.004c-2.005.467-3.753.635-5.196.499-3.192-.31-7.196-1.307-8.144-4.308-.433-1.358.046-2.67.437-3.425 1.913.806 6.8 2.542 11.775 1.714 3.339-.558 4.604-1.271 5.828-1.962.67-.378 1.303-.735 2.323-1.076 2.347-.777 3.916.701 3.977.759.218.217.523.321.829.285.306-.037.577-.214.735-.478l2.523-4.206 2.206 1.103-2.444 4.074z"/></svg>