<svg id="Capa_1" enable-background="new 0 0 601.409 601.409" height="512" viewBox="0 0 601.409 601.409" width="512" xmlns="http://www.w3.org/2000/svg"><g><g><path d="m562.609 349.205v-19.4h-145.503v-122.086l2.842-2.842c10.68-10.67 16.558-24.871 16.558-39.974s-5.878-29.304-16.558-39.974l-69.569-69.569c-10.525-10.525-25.094-16.558-39.974-16.558s-29.45 6.033-39.974 16.558l-41.643 41.643h-5.684v-67.903c0-16.044-13.056-29.1-29.1-29.1h-116.403c-16.044 0-29.1 13.056-29.1 29.1v72.935l-48.501 38.801v392.672c0 26.743 21.757 48.501 48.501 48.501l244.289-.01c4.016 11.272 14.686 19.41 27.316 19.41h213.403c16.044 0 29.1-13.056 29.1-29.1v-68.881c22.107-4.511 38.801-24.095 38.801-47.521v-106.702zm-145.503 38.801c-16.044 0-29.1 13.056-29.1 29.1v58.201c0 5.354-4.346 9.7-9.7 9.7s-9.7-4.346-9.7-9.7v-126.102h97.001v164.903c0 5.354-4.346 9.7-9.7 9.7s-9.7-4.346-9.7-9.7v-97.001c0-16.045-13.057-29.101-29.101-29.101zm-164.902-38.801v7.566c-5.16-4.656-11.921-7.566-19.4-7.566-16.044 0-29.1 13.056-29.1 29.1s13.056 29.1 29.1 29.1c7.479 0 14.24-2.92 19.4-7.566v42.351l-9.7 9.7v23.416c0 5.354-4.346 9.7-9.7 9.7h-9.7v-38.801h-19.4v38.801h-19.4v-38.801h-19.4v38.801h-9.7c-5.354 0-9.7-4.346-9.7-9.7v-23.416l-17.538-17.538c-13.716-13.716-21.263-31.952-21.263-51.343 0-40.042 32.573-72.606 72.606-72.606h29.382c27.51 0 51.818 15.19 64.176 38.801h-20.663zm-9.7 29.101c0 5.354-4.346 9.7-9.7 9.7s-9.7-4.346-9.7-9.7 4.346-9.7 9.7-9.7 9.7 4.345 9.7 9.7zm29.1-9.7h19.4v114.617c-11.262-4.016-19.4-14.686-19.4-27.316zm19.4-26.802c-15.355-30.905-46.784-50.8-82.306-50.8h-29.382c-50.741 0-92.016 41.274-92.016 92.006 0 24.57 9.564 47.686 26.947 65.059l11.854 11.854v15.384c0 16.044 13.056 29.1 29.1 29.1h77.601c13.289 0 24.396-9.002 27.869-21.195 6.994 10.224 17.78 17.654 30.332 20.205v20.39h-223.102c-5.354 0-9.7-4.346-9.7-9.7v-232.803c0-5.345 4.346-9.7 9.7-9.7h252.204c5.354 0 9.7 4.355 9.7 9.7v48.501h-38.801zm-54.185-225.402 47.327-47.327c6.916-6.907 16.481-10.874 26.258-10.874s19.342 3.967 26.258 10.874l69.569 69.569c7.013 7.013 10.874 16.345 10.874 26.258 0 9.914-3.861 19.245-10.874 26.258l-8.526 8.526v88.214l-161.05-152.098h-199.3l24.25-19.4h151.798 9.7zm-33.116-38.801v19.4h-19.4v-19.4zm-38.8 19.4h-19.4v-19.4h19.4zm-38.801 0h-19.4v-19.4h19.4zm-38.801 0h-19.4v-19.4h19.4zm-9.7-77.601h116.402c5.354 0 9.7 4.355 9.7 9.7v29.1h-135.802v-29.1c0-5.344 4.346-9.7 9.7-9.7zm-58.201 514.108v-378.306h209.552l168.753 159.373v15.229h-48.501v-48.501c0-16.044-13.056-29.1-29.1-29.1h-252.203c-16.044 0-29.1 13.056-29.1 29.1v232.804c0 16.044 13.056 29.1 29.1 29.1h223.103v19.391l-242.504.01c-16.043.001-29.1-13.056-29.1-29.1zm523.808 38.801c0 5.354-4.346 9.7-9.7 9.7h-213.403c-5.354 0-9.7-4.346-9.7-9.7v-223.104h38.801v126.102c0 16.044 13.056 29.1 29.1 29.1s29.1-13.056 29.1-29.1v-58.201c0-5.354 4.346-9.7 9.7-9.7s9.7 4.346 9.7 9.7v97.001c0 16.044 13.056 29.1 29.1 29.1s29.1-13.056 29.1-29.1v-164.902h58.201v223.104zm38.801-116.402c0 12.63-8.138 23.3-19.4 27.316v-114.617h19.4z"/><path d="m401.722 164.903-91.317-91.317-52.517 52.517 91.317 91.317zm-91.317-63.886 63.885 63.885-25.085 25.085-63.885-63.885z"/><path d="m155.202 349.205c-16.044 0-29.1 13.056-29.1 29.1s13.056 29.1 29.1 29.1 29.1-13.056 29.1-29.1c.001-16.043-13.056-29.1-29.1-29.1zm0 38.801c-5.354 0-9.7-4.346-9.7-9.7s4.346-9.7 9.7-9.7 9.7 4.346 9.7 9.7c.001 5.354-4.345 9.7-9.7 9.7z"/><path d="m213.403 174.603h-174.602v58.201h174.603v-58.201zm-19.4 38.8h-135.802v-19.4h135.802z"/></g></g></svg>